<svg xmlns="http://www.w3.org/2000/svg" viewBox="0 0 100 100" width="100" height="100">
  <defs>
    <linearGradient id="ds4uGrad" x1="0%" y1="0%" x2="100%" y2="100%">
      <stop offset="0%" stop-color="#3B82F6" />
      <stop offset="100%" stop-color="#10B981" />
    </linearGradient>
  </defs>
  <rect width="100" height="100" rx="20" fill="#0E0F14" />
  <circle cx="50" cy="50" r="38" stroke="url(#ds4uGrad)" stroke-width="4" fill="none" opacity="0.3" />
  <!-- A stylized cloud and letter D -->
  <path d="M38 45 C35 45 32 48 32 52 C32 56 35 60 38 60 H60 C64 60 67 56 67 52 C67 48 64 45 60 45 C59 40 54 36 49 36 C44 36 40 40 38 45 Z" fill="url(#ds4uGrad)" opacity="0.5" />
  <path d="M40 33 H52 C60 33 65 38 65 47 C65 56 60 61 52 61 H40 V33 Z M46 40 V54 H50 C54 54 57 52 57 47 C57 42 54 40 50 40 H46 Z" fill="url(#ds4uGrad)" />
</svg>
