<svg xmlns="http://www.w3.org/2000/svg" viewBox="0 0 100 100" width="100" height="100">
  <defs>
    <linearGradient id="kvGrad" x1="0%" y1="0%" x2="100%" y2="100%">
      <stop offset="0%" stop-color="#D97706" />
      <stop offset="100%" stop-color="#DC2626" />
    </linearGradient>
  </defs>
  <rect width="100" height="100" rx="20" fill="#0E0F14" />
  <circle cx="50" cy="50" r="38" stroke="url(#kvGrad)" stroke-width="4" fill="none" opacity="0.3" />
  <!-- Stylized KV Rising Sun and Book symbol -->
  <path d="M 50,30 C 42,30 35,38 35,46 L 50,75 L 65,46 C 65,38 58,30 50,30 Z" fill="url(#kvGrad)" opacity="0.4" />
  <path d="M 50,22 C 55,22 59,25 61,28 L 50,42 L 39,28 C 41,25 45,22 50,22 Z" fill="url(#kvGrad)" />
  <path d="M 30,55 L 50,68 L 70,55 L 70,59 L 50,72 L 30,59 Z" fill="url(#kvGrad)" />
</svg>
